<?xml version="1.0" encoding="utf-8"?>
<!-- Generator: Adobe Illustrator 19.2.1, SVG Export Plug-In . SVG Version: 6.00 Build 0)  -->
<svg version="1.1" id="レイヤー_1" xmlns="http://www.w3.org/2000/svg" xmlns:xlink="http://www.w3.org/1999/xlink" x="0px"
	 y="0px" viewBox="0 0 420 420" style="enable-background:new 0 0 420 420;" xml:space="preserve">
<style type="text/css">
	.st0{fill:#666666;}
	.st1{clip-path:url(#SVGID_2_);fill:#FFFFFF;}
	.st2{fill:#FFFFFF;}
	.st3{fill-rule:evenodd;clip-rule:evenodd;fill:#666666;}
	.st4{fill-rule:evenodd;clip-rule:evenodd;}
	.st5{fill-rule:evenodd;clip-rule:evenodd;fill:#FFFFFF;}
	.st6{fill:none;stroke:#000000;stroke-width:10;stroke-linecap:round;stroke-miterlimit:10;}
</style>
<g>
	<path class="st0" d="M348.77,236.821c17.107,17.107,17.107,44.842,0,61.949s-44.842,17.107-61.949,0s15.498-12.238,32.605-29.344
		S331.663,219.714,348.77,236.821z"/>
</g>
<g>
	<g>
		<path class="st0" d="M280.711,240.003c-39.052-44.772-102.369-44.772-141.421,0s-29.044,162.132,0,162.132
			S170,343.998,210,343.998s41.667,58.137,70.711,58.137S319.763,284.774,280.711,240.003z"/>
		<g>
			<defs>
				<path id="SVGID_1_" d="M280.711,240.003c-39.052-44.772-102.369-44.772-141.421,0s-29.044,162.132,0,162.132
					S170,343.998,210,343.998s41.667,58.137,70.711,58.137S319.763,284.774,280.711,240.003z"/>
			</defs>
			<clipPath id="SVGID_2_">
				<use xlink:href="#SVGID_1_"  style="overflow:visible;"/>
			</clipPath>
			<ellipse class="st1" cx="141" cy="388.136" rx="43" ry="34.967"/>
			<ellipse class="st1" cx="279" cy="388.136" rx="43" ry="34.967"/>
			<path class="st1" d="M249,310.751c0,24.693-17.461,44.711-39,44.711s-39-20.018-39-44.711c0-24.693,17.461,1.146,39,1.146
				S249,286.057,249,310.751z"/>
		</g>
	</g>
	<path class="st0" d="M157.559,33.784c-12.603-12.603-43.179-22.745-55.782-10.142s-2.461,43.179,10.142,55.782L157.559,33.784z"/>
	<path class="st2" d="M143.906,47.437c-6.592-6.592-22.586-11.897-29.178-5.305s-1.287,22.586,5.305,29.178L143.906,47.437z"/>
	<path class="st0" d="M262.441,33.784c12.603-12.603,43.179-22.745,55.782-10.142s2.461,43.179-10.142,55.782L262.441,33.784z"/>
	<path class="st2" d="M276.094,47.437c6.592-6.592,22.586-11.897,29.178-5.305s1.287,22.586-5.305,29.178L276.094,47.437z"/>
	<path class="st3" d="M86,153.424c0-68.483,55.517-134,124-134s124,65.517,124,134s-55.517,104-124,104S86,221.907,86,153.424z"/>
	<circle class="st4" cx="160" cy="141.424" r="18"/>
	<circle class="st4" cx="260" cy="141.424" r="18"/>
	<g>
		<path class="st2" d="M210,257.424c41.205,0,77.708-12.864,100.257-38.023c-1.636-3.51-3.848-6.743-6.67-9.564
			c-11.16-11.16-28.688-12.94-44.807-6.146c-2.307-20.34-23.261-36.267-48.78-36.267s-46.473,15.927-48.78,36.267
			c-16.119-6.794-33.647-5.014-44.807,6.146c-2.821,2.821-5.033,6.054-6.67,9.564C132.292,244.56,168.795,257.424,210,257.424z"/>
	</g>
	<path class="st4" d="M191,177.744c0-7.356,8.507-10.32,19-10.32s19,2.964,19,10.32c0,7.356-8.507,15.68-19,15.68
		S191,185.1,191,177.744z"/>
	<ellipse class="st5" cx="188" cy="101.424" rx="12" ry="15"/>
	<ellipse class="st5" cx="232" cy="101.424" rx="12" ry="15"/>
	<path class="st6" d="M197,218.424c7.18,0,13-5.82,13-13v-18"/>
	<path class="st6" d="M223,218.424c-7.18,0-13-5.82-13-13v-18"/>
	<line class="st6" x1="144" y1="120" x2="176" y2="120"/>
	<line class="st6" x1="276" y1="120" x2="244" y2="120"/>
</g>
<circle class="st2" cx="210" cy="257.424" r="25.371"/>
</svg>
